<svg width="1177" height="220" viewBox="0 0 1177 220" fill="none" xmlns="http://www.w3.org/2000/svg">
<path d="M36.6641 169.805C37.2109 168.529 38.1224 167.708 39.3984 167.344C40.8568 166.797 41.7682 165.794 42.1328 164.336C42.4974 163.06 42.4062 161.966 41.8594 161.055C41.3125 159.961 41.1302 158.685 41.3125 157.227C41.3125 156.497 41.4948 155.768 41.8594 155.039C42.224 154.128 42.5885 153.216 42.9531 152.305C43.5 150.117 43.9557 147.93 44.3203 145.742C44.6849 143.372 45.0495 141.094 45.4141 138.906C45.9609 136.719 46.599 134.714 47.3281 132.891C48.0573 131.068 49.151 129.609 50.6094 128.516C50.974 125.234 51.8854 122.044 53.3438 118.945C54.9844 115.846 56.0781 112.474 56.625 108.828C56.8073 107.917 56.8073 106.914 56.625 105.82C56.4427 104.727 56.4427 103.724 56.625 102.812C56.9896 100.807 57.5365 98.8932 58.2656 97.0703C59.1771 95.2474 59.8151 93.3333 60.1797 91.3281C61.2734 86.5885 62.3672 82.0312 63.4609 77.6562C64.5547 73.099 65.5573 68.8151 66.4688 64.8047C67.0156 62.7995 67.1979 60.9766 67.0156 59.3359C66.8333 57.513 66.9245 55.7812 67.2891 54.1406C67.8359 50.4948 68.3828 47.0312 68.9297 43.75C69.4766 40.4688 69.4766 37.2786 68.9297 34.1797C68.5651 33.0859 68.0182 31.9922 67.2891 30.8984C66.5599 29.6224 66.013 28.2552 65.6484 26.7969C65.2839 25.8854 65.1016 25.0651 65.1016 24.3359C65.1016 23.4245 64.9193 22.513 64.5547 21.6016C63.8255 19.9609 62.7318 18.776 61.2734 18.0469C59.9974 17.1354 58.7214 16.224 57.4453 15.3125C56.1693 14.401 55.0755 13.3073 54.1641 12.0312C53.4349 10.5729 53.2526 8.56771 53.6172 6.01562C54.8932 4.73958 56.4427 4.01042 58.2656 3.82812C60.0885 3.46354 62.0026 3.46354 64.0078 3.82812C66.1953 4.01042 68.3828 4.46615 70.5703 5.19531C72.7578 5.74219 74.8542 6.19792 76.8594 6.5625C79.5938 6.92708 82.5104 7.10938 85.6094 7.10938C88.7083 6.92708 91.8984 6.74479 95.1797 6.5625C98.6432 6.38021 102.016 6.28906 105.297 6.28906C108.76 6.28906 112.042 6.47135 115.141 6.83594C116.052 7.01823 116.69 7.29167 117.055 7.65625C117.602 8.02083 118.24 8.20312 118.969 8.20312C120.427 8.02083 121.612 7.65625 122.523 7.10938C123.617 6.38021 124.893 5.83333 126.352 5.46875C133.096 4.55729 139.477 4.92188 145.492 6.5625C151.69 8.02083 157.797 9.20573 163.812 10.1172C169.646 11.0286 175.479 11.7578 181.312 12.3047C187.328 12.8516 192.25 14.3099 196.078 16.6797C198.083 18.138 199.906 19.7786 201.547 21.6016C203.188 23.2422 205.01 24.6094 207.016 25.7031C210.115 27.3438 213.396 28.7109 216.859 29.8047C220.505 30.8984 223.878 32.1745 226.977 33.6328C227.888 33.9974 228.708 34.5443 229.438 35.2734C230.167 35.8203 230.987 36.276 231.898 36.6406C233.357 37.5521 234.724 38.1901 236 38.5547C237.276 38.9193 238.552 39.7396 239.828 41.0156C241.104 41.9271 242.107 43.112 242.836 44.5703C243.747 46.0286 244.659 47.487 245.57 48.9453C247.211 51.4974 248.943 53.6849 250.766 55.5078C252.589 57.3307 254.047 59.7917 255.141 62.8906C255.505 64.5312 255.779 66.1719 255.961 67.8125C256.326 69.4531 256.781 71.0026 257.328 72.4609C258.786 76.4714 259.88 81.3021 260.609 86.9531C261.521 92.4219 261.156 98.0729 259.516 103.906C259.151 105.182 258.604 106.367 257.875 107.461C257.146 108.555 256.599 109.74 256.234 111.016C253.682 117.578 250.766 123.958 247.484 130.156C244.203 136.172 239.737 142.096 234.086 147.93C232.263 147.93 230.44 148.294 228.617 149.023C227.341 151.029 226.247 153.125 225.336 155.312C224.607 157.5 223.513 159.414 222.055 161.055C221.326 161.966 220.323 162.786 219.047 163.516C217.953 164.245 216.951 165.156 216.039 166.25C212.211 170.99 207.927 175.911 203.188 181.016C198.448 185.938 193.617 189.948 188.695 193.047C187.237 193.958 185.596 194.87 183.773 195.781C182.133 196.693 180.674 197.422 179.398 197.969C178.487 198.333 177.576 198.516 176.664 198.516C175.935 198.516 175.115 198.698 174.203 199.062C172.198 199.974 170.466 201.25 169.008 202.891C167.549 204.349 166 205.716 164.359 206.992C160.531 206.445 156.885 206.81 153.422 208.086C149.958 209.18 146.312 209.727 142.484 209.727C136.469 209.727 129.815 209.909 122.523 210.273C115.414 210.82 108.214 211.276 100.922 211.641C98.3698 211.823 95.8177 212.005 93.2656 212.188C90.8958 212.37 88.2526 212.461 85.3359 212.461C80.5964 212.643 76.0391 212.643 71.6641 212.461C67.2891 212.279 63.0052 212.188 58.8125 212.188C53.526 212.005 48.6042 212.37 44.0469 213.281C39.6719 214.193 34.75 214.922 29.2812 215.469C25.6354 215.833 22.1719 216.562 18.8906 217.656C15.4271 218.75 12.4193 219.297 9.86719 219.297C8.95573 219.297 7.95312 219.115 6.85938 218.75C5.76562 218.568 4.76302 218.203 3.85156 217.656C2.9401 217.109 2.21094 216.471 1.66406 215.742C0.934896 215.013 0.661458 214.102 0.84375 213.008C1.02604 212.279 1.57292 211.458 2.48438 210.547C3.39583 209.818 4.48958 209.089 5.76562 208.359C7.04167 207.63 8.31771 206.992 9.59375 206.445C10.8698 205.716 11.9635 205.078 12.875 204.531C17.0677 201.615 20.349 198.971 22.7188 196.602C25.0885 194.232 27.5495 190.677 30.1016 185.938C31.013 184.297 31.8333 182.93 32.5625 181.836C33.474 180.56 34.2031 179.375 34.75 178.281C35.2969 177.188 35.7526 176.003 36.1172 174.727C36.4818 173.451 36.6641 171.81 36.6641 169.805ZM117.055 185.117C118.878 185.299 120.518 185.664 121.977 186.211C123.617 186.758 125.258 187.122 126.898 187.305C130.544 187.487 133.643 186.667 136.195 184.844C138.93 183.021 141.391 181.38 143.578 179.922C145.219 179.01 146.951 178.19 148.773 177.461C150.596 176.732 152.055 176.003 153.148 175.273C156.977 172.904 160.44 169.896 163.539 166.25C166.82 162.604 169.828 158.594 172.562 154.219C175.297 149.844 177.758 145.378 179.945 140.82C182.315 136.081 184.503 131.615 186.508 127.422C187.784 124.87 189.06 122.409 190.336 120.039C191.612 117.487 192.706 115.026 193.617 112.656C194.711 109.557 195.076 106.641 194.711 103.906C194.346 100.99 194.62 98.1641 195.531 95.4297C195.896 94.5182 196.625 93.6068 197.719 92.6953C198.812 91.6016 199.451 90.4167 199.633 89.1406C199.815 87.3177 199.268 86.0417 197.992 85.3125C196.898 84.401 196.26 83.125 196.078 81.4844C195.896 80.3906 195.987 79.2969 196.352 78.2031C196.716 76.9271 196.898 75.651 196.898 74.375C196.898 71.8229 196.534 69.1797 195.805 66.4453C195.258 63.5286 194.438 60.7943 193.344 58.2422C192.25 55.5078 190.883 53.0469 189.242 50.8594C187.602 48.6719 185.87 46.9401 184.047 45.6641C182.224 44.388 179.581 43.112 176.117 41.8359C172.654 40.5599 168.917 39.5573 164.906 38.8281C160.896 37.9167 156.885 37.3698 152.875 37.1875C149.047 37.0052 145.948 37.1875 143.578 37.7344C140.844 38.6458 138.747 40.013 137.289 41.8359C136.013 43.6589 134.828 45.7552 133.734 48.125C132.823 50.3125 131.911 52.6823 131 55.2344C130.089 57.6042 128.812 59.7917 127.172 61.7969C126.443 62.526 125.258 63.2552 123.617 63.9844C122.159 64.5312 121.247 65.5339 120.883 66.9922C120.518 68.0859 120.701 69.362 121.43 70.8203C122.159 72.0964 122.523 73.2812 122.523 74.375C122.523 76.0156 122.159 77.474 121.43 78.75C120.701 79.8438 120.154 81.1198 119.789 82.5781C118.878 85.6771 118.057 88.8672 117.328 92.1484C116.599 95.2474 115.688 98.5286 114.594 101.992C113.5 105.091 112.224 108.281 110.766 111.562C109.49 114.661 108.669 117.669 108.305 120.586C107.393 126.055 106.573 131.888 105.844 138.086C105.297 144.102 104.294 149.661 102.836 154.766C101.742 158.229 100.375 161.693 98.7344 165.156C97.276 168.62 96.7292 171.901 97.0938 175C97.276 176.823 98.0052 178.646 99.2812 180.469C100.74 182.292 101.924 184.023 102.836 185.664C105.388 185.664 107.758 185.573 109.945 185.391C112.133 185.026 114.503 184.935 117.055 185.117ZM403.617 82.3047C398.695 84.6745 393.773 85.8594 388.852 85.8594C383.93 85.8594 378.461 85.6771 372.445 85.3125C370.805 85.3125 368.982 85.4036 366.977 85.5859C365.154 85.7682 363.422 85.9505 361.781 86.1328C353.214 87.0443 346.013 90.3255 340.18 95.9766C334.346 101.445 330.062 108.372 327.328 116.758C326.417 119.857 325.688 122.682 325.141 125.234C324.594 127.786 325.779 129.245 328.695 129.609C330.518 129.974 332.341 129.974 334.164 129.609C335.987 129.245 337.81 128.789 339.633 128.242C341.638 127.513 343.552 126.875 345.375 126.328C347.198 125.781 349.021 125.508 350.844 125.508C351.573 125.508 352.211 125.69 352.758 126.055C353.487 126.419 354.216 126.602 354.945 126.602C358.044 126.966 361.326 126.784 364.789 126.055C368.253 125.143 371.443 125.052 374.359 125.781C374.906 125.964 375.362 126.328 375.727 126.875C376.273 127.24 377.003 127.604 377.914 127.969C380.284 128.88 383.109 129.518 386.391 129.883C389.672 130.065 392.315 130.612 394.32 131.523C395.232 131.888 396.143 132.617 397.055 133.711C397.966 134.622 398.422 135.26 398.422 135.625C398.422 137.63 397.237 138.906 394.867 139.453C392.497 140 390.492 140.365 388.852 140.547C387.393 140.729 385.935 140.729 384.477 140.547C383.018 140.365 381.56 140.456 380.102 140.82C377.549 141.185 375.089 141.732 372.719 142.461C370.349 143.008 367.797 143.737 365.062 144.648C361.964 145.742 359.047 147.109 356.312 148.75C353.578 150.208 350.57 151.12 347.289 151.484C344.919 151.849 342.641 151.849 340.453 151.484C338.266 151.12 335.896 151.12 333.344 151.484C332.432 151.667 331.521 151.94 330.609 152.305C329.88 152.669 329.06 152.943 328.148 153.125C326.508 153.49 325.232 153.763 324.32 153.945C323.591 153.945 322.953 154.128 322.406 154.492C322.042 154.857 321.586 155.404 321.039 156.133C320.674 156.862 320.036 157.956 319.125 159.414C317.667 162.695 316.755 166.25 316.391 170.078C316.026 173.724 315.661 177.643 315.297 181.836C317.302 183.841 319.216 185.482 321.039 186.758C322.862 187.852 325.688 188.398 329.516 188.398C331.521 188.398 333.07 188.216 334.164 187.852C335.44 187.305 337.081 186.94 339.086 186.758C341.091 186.758 343.096 186.94 345.102 187.305C347.107 187.487 349.385 187.487 351.938 187.305C357.224 186.94 361.69 186.302 365.336 185.391C368.982 184.297 373.448 183.932 378.734 184.297C379.828 184.297 381.742 184.388 384.477 184.57C387.393 184.753 390.31 185.026 393.227 185.391C396.143 185.573 398.695 185.938 400.883 186.484C403.253 187.031 404.438 187.76 404.438 188.672C404.438 189.766 403.708 190.951 402.25 192.227C400.974 193.32 399.424 194.414 397.602 195.508C395.961 196.419 394.229 197.24 392.406 197.969C390.766 198.516 389.672 198.88 389.125 199.062C386.026 199.974 383.018 200.247 380.102 199.883C377.185 199.336 373.995 199.245 370.531 199.609C367.979 199.974 365.701 200.521 363.695 201.25C361.69 201.979 359.685 202.799 357.68 203.711C355.674 204.44 353.578 205.26 351.391 206.172C349.385 206.901 347.016 207.357 344.281 207.539C340.635 207.904 337.536 208.359 334.984 208.906C332.432 209.271 329.424 209.818 325.961 210.547C324.503 210.911 323.135 211.276 321.859 211.641C320.583 212.188 319.216 212.643 317.758 213.008C312.471 214.102 306.729 214.284 300.531 213.555C294.516 213.008 287.953 213.099 280.844 213.828C276.286 214.375 272.185 215.013 268.539 215.742C265.076 216.654 261.521 216.927 257.875 216.562C256.599 216.38 255.414 216.198 254.32 216.016C253.044 216.016 251.951 215.56 251.039 214.648C251.404 213.19 252.224 211.914 253.5 210.82C254.776 209.727 256.052 208.724 257.328 207.812C258.604 206.719 259.789 205.625 260.883 204.531C262.159 203.255 263.344 202.07 264.438 200.977C265.531 199.518 266.443 197.786 267.172 195.781C267.901 193.594 268.539 191.406 269.086 189.219C269.815 187.031 270.544 185.026 271.273 183.203C272.185 181.198 273.279 179.466 274.555 178.008C273.096 174.727 273.096 170.99 274.555 166.797C276.195 162.604 277.654 158.229 278.93 153.672C279.294 152.578 279.477 151.484 279.477 150.391C279.477 149.297 279.659 148.294 280.023 147.383C280.388 145.56 281.208 144.01 282.484 142.734C283.76 141.276 284.581 139.818 284.945 138.359C285.128 137.448 285.128 136.536 284.945 135.625C284.945 134.714 285.036 133.802 285.219 132.891C285.583 130.156 286.221 127.604 287.133 125.234C288.227 122.682 288.956 120.404 289.32 118.398C289.685 116.94 289.685 115.482 289.32 114.023C289.138 112.383 289.138 110.833 289.32 109.375C289.685 105.729 290.414 102.266 291.508 98.9844C292.784 95.7031 293.513 92.7865 293.695 90.2344C293.878 88.2292 293.604 86.0417 292.875 83.6719C292.146 81.3021 291.417 79.4792 290.688 78.2031C290.141 77.2917 289.32 76.3802 288.227 75.4688C287.133 74.375 286.039 73.3724 284.945 72.4609C283.852 71.5495 282.849 70.7292 281.938 70C281.208 69.0885 280.844 68.2682 280.844 67.5391C281.026 65.5339 281.846 64.5312 283.305 64.5312C284.763 64.349 286.13 63.7109 287.406 62.6172C293.969 62.7995 300.167 63.5286 306 64.8047C312.016 66.0807 318.214 66.901 324.594 67.2656C326.964 67.6302 329.424 67.6302 331.977 67.2656C334.529 66.7188 336.99 66.3542 339.359 66.1719C343.188 65.9896 347.471 66.5365 352.211 67.8125C357.133 69.0885 361.964 69.5443 366.703 69.1797C373.083 68.8151 379.099 68.6328 384.75 68.6328C390.401 68.6328 396.326 68.4505 402.523 68.0859C403.617 68.9974 405.258 69.4531 407.445 69.4531C409.633 69.2708 411.82 69.0885 414.008 68.9062C416.378 68.5417 418.474 68.4505 420.297 68.6328C422.302 68.8151 423.669 69.6354 424.398 71.0938C425.492 73.6458 425.31 75.8333 423.852 77.6562C422.393 79.4792 420.388 80.6641 417.836 81.2109C417.107 81.2109 416.104 81.3021 414.828 81.4844C413.552 81.6667 412.185 81.849 410.727 82.0312C409.268 82.2135 407.81 82.3047 406.352 82.3047C405.076 82.3047 404.164 82.3047 403.617 82.3047ZM489.477 171.445C492.211 169.805 494.307 167.617 495.766 164.883C497.406 161.966 499.138 159.232 500.961 156.68C502.966 154.31 504.971 152.031 506.977 149.844C508.982 147.656 510.896 145.286 512.719 142.734C512.901 141.641 512.992 141.003 512.992 140.82C513.174 140.638 513.266 140.547 513.266 140.547C513.448 140.365 513.539 140.182 513.539 140C513.721 139.818 513.995 139.271 514.359 138.359C516.729 136.901 519.008 135.26 521.195 133.438C523.565 131.432 524.203 128.242 523.109 123.867C524.385 121.315 525.57 119.219 526.664 117.578C527.758 115.755 528.852 114.115 529.945 112.656C531.221 111.016 532.406 109.375 533.5 107.734C534.776 105.911 536.143 103.815 537.602 101.445C540.154 101.081 541.703 99.8047 542.25 97.6172C542.797 95.2474 543.526 92.8776 544.438 90.5078C545.349 88.5026 546.352 86.5885 547.445 84.7656C548.539 82.9427 549.542 81.2109 550.453 79.5703C551.729 77.7474 552.914 76.0156 554.008 74.375C555.102 72.7344 556.286 71.276 557.562 70C558.109 67.9948 559.112 65.8073 560.57 63.4375C562.029 61.0677 563.76 58.9714 565.766 57.1484C567.953 55.3255 570.323 54.1406 572.875 53.5938C575.609 52.8646 578.435 53.138 581.352 54.4141C582.992 55.1432 584.451 56.6016 585.727 58.7891C587.185 60.9766 588.005 63.0729 588.188 65.0781C588.188 68.3594 587.094 71.5495 584.906 74.6484C582.719 77.7474 581.169 80.3906 580.258 82.5781C580.44 84.2188 580.167 85.6771 579.438 86.9531C578.708 88.2292 577.797 89.4141 576.703 90.5078C575.609 91.6016 574.516 92.6042 573.422 93.5156C572.328 94.4271 571.508 95.4297 570.961 96.5234C568.773 98.3464 567.042 99.8958 565.766 101.172C564.672 102.266 562.849 103.724 560.297 105.547C558.656 107.005 557.38 108.555 556.469 110.195C555.557 111.836 554.828 113.659 554.281 115.664C553.734 117.487 553.188 119.492 552.641 121.68C552.094 123.867 551.273 126.146 550.18 128.516C548.539 132.161 546.352 135.443 543.617 138.359C540.883 141.094 538.513 144.193 536.508 147.656C534.138 151.302 532.589 154.857 531.859 158.32C531.312 161.602 529.854 165.065 527.484 168.711C526.755 169.987 525.844 171.263 524.75 172.539C523.656 173.633 522.654 174.818 521.742 176.094C518.279 180.651 514.724 185.208 511.078 189.766C507.615 194.323 504.607 199.336 502.055 204.805C500.961 204.987 499.958 205.625 499.047 206.719C498.318 207.812 497.497 208.815 496.586 209.727C496.039 210.091 495.31 210.365 494.398 210.547C493.487 210.911 492.667 211.276 491.938 211.641C490.844 212.552 489.841 213.464 488.93 214.375C488.018 215.286 486.56 216.107 484.555 216.836C483.096 217.201 481.365 217.474 479.359 217.656C477.536 218.021 476.078 218.112 474.984 217.93C472.068 217.383 469.424 215.469 467.055 212.188C464.685 209.089 463.044 205.99 462.133 202.891C459.216 200.339 457.12 197.422 455.844 194.141C454.568 190.677 453.565 186.667 452.836 182.109C452.654 181.198 452.562 180.378 452.562 179.648C452.745 178.919 452.836 178.099 452.836 177.188C452.654 175.365 452.107 173.542 451.195 171.719C450.284 169.714 449.281 167.708 448.188 165.703C447.094 163.698 446.091 161.693 445.18 159.688C444.268 157.5 443.812 155.404 443.812 153.398C443.812 151.576 443.904 149.753 444.086 147.93C444.268 146.107 444.177 144.193 443.812 142.188C443.448 140.365 442.719 138.815 441.625 137.539C440.714 136.081 440.167 134.076 439.984 131.523C439.802 130.065 439.529 128.151 439.164 125.781C438.982 123.229 438.708 120.677 438.344 118.125C438.161 115.391 437.979 112.839 437.797 110.469C437.615 107.917 437.432 106.003 437.25 104.727C436.885 101.081 435.974 97.0703 434.516 92.6953C433.057 88.138 431.964 84.3099 431.234 81.2109C430.87 79.388 430.688 77.0182 430.688 74.1016C430.688 71.1849 430.779 69.4531 430.961 68.9062C431.326 67.4479 432.419 66.0807 434.242 64.8047C436.247 63.3464 438.07 62.6172 439.711 62.6172C441.352 62.6172 442.719 63.1641 443.812 64.2578C444.906 65.3516 446.365 66.1719 448.188 66.7188C449.646 67.0833 450.831 67.3568 451.742 67.5391C452.654 67.7214 454.112 67.8125 456.117 67.8125C457.94 67.6302 459.763 67.8125 461.586 68.3594C463.591 68.9062 465.323 69.362 466.781 69.7266C469.88 70.638 472.159 72.8255 473.617 76.2891C475.076 79.7526 475.531 83.5807 474.984 87.7734C474.62 89.4141 474.438 91.237 474.438 93.2422C474.438 95.2474 474.164 97.0703 473.617 98.7109C473.253 99.987 473.344 101.172 473.891 102.266C474.62 103.177 474.893 104.18 474.711 105.273C474.711 106.367 474.893 108.099 475.258 110.469C475.622 112.656 476.078 115.117 476.625 117.852C477.172 120.404 477.719 122.865 478.266 125.234C478.812 127.604 479.268 129.336 479.633 130.43C480.362 132.799 481.365 135.078 482.641 137.266C483.917 139.271 484.555 141.276 484.555 143.281C484.555 144.375 484.372 145.469 484.008 146.562C483.643 147.474 483.461 148.385 483.461 149.297C483.096 153.854 483.461 157.956 484.555 161.602C485.831 165.065 487.471 168.346 489.477 171.445ZM831.82 1.36719C830.18 4.46615 828.174 6.92708 825.805 8.75C823.617 10.3906 821.247 12.1224 818.695 13.9453C816.508 15.9505 814.047 17.7734 811.312 19.4141C808.578 20.8724 806.208 22.6042 804.203 24.6094C800.375 28.8021 797.003 33.9974 794.086 40.1953C791.352 46.2109 788.708 52.2266 786.156 58.2422C785.427 59.7005 784.424 61.1589 783.148 62.6172C782.055 64.0755 781.143 65.625 780.414 67.2656C778.409 72.1875 776.677 77.3828 775.219 82.8516C773.943 88.3203 772.667 93.8802 771.391 99.5312C770.297 105 769.112 110.56 767.836 116.211C766.56 121.862 765.01 127.331 763.188 132.617C762.276 133.529 761.182 134.349 759.906 135.078C758.63 135.625 757.719 136.536 757.172 137.812C757.354 138.724 757.719 139.635 758.266 140.547C758.995 141.276 759.451 142.188 759.633 143.281C759.815 144.74 759.542 146.198 758.812 147.656C758.266 149.115 757.81 150.755 757.445 152.578C756.534 157.865 755.076 163.698 753.07 170.078C751.247 176.276 748.878 181.198 745.961 184.844C744.32 190.312 742.771 195.872 741.312 201.523C740.036 207.174 737.849 212.096 734.75 216.289C733.109 216.836 731.56 217.565 730.102 218.477C728.826 219.388 727.185 219.844 725.18 219.844C724.268 219.844 723.266 219.57 722.172 219.023C721.26 218.477 720.167 218.021 718.891 217.656C717.432 217.292 715.792 216.927 713.969 216.562C712.146 216.38 710.414 216.016 708.773 215.469C707.133 215.104 705.492 214.648 703.852 214.102C702.393 213.555 700.935 213.281 699.477 213.281C697.836 213.281 695.648 213.281 692.914 213.281C690.18 213.281 688.083 213.008 686.625 212.461C686.078 210.638 685.258 208.997 684.164 207.539C683.253 205.898 682.432 204.167 681.703 202.344C680.974 200.703 680.154 198.88 679.242 196.875C678.331 194.87 677.784 192.865 677.602 190.859C677.419 189.948 677.51 188.945 677.875 187.852C678.24 186.758 678.331 185.755 678.148 184.844C677.784 183.385 677.055 181.927 675.961 180.469C674.867 179.01 674.138 177.552 673.773 176.094C673.591 175.182 673.591 174.271 673.773 173.359C673.956 172.266 673.956 171.263 673.773 170.352C673.591 169.076 673.135 168.073 672.406 167.344C671.859 166.615 671.404 165.703 671.039 164.609C670.674 164.062 670.583 163.516 670.766 162.969C670.948 162.24 670.948 161.602 670.766 161.055C670.401 159.779 669.763 158.594 668.852 157.5C668.122 156.224 667.576 155.039 667.211 153.945C666.482 151.029 666.117 148.021 666.117 144.922C666.299 141.641 666.208 138.451 665.844 135.352C665.479 132.799 664.841 130.339 663.93 127.969C663.201 125.417 662.836 122.773 662.836 120.039C662.836 118.581 663.109 117.305 663.656 116.211C664.203 115.117 664.477 113.932 664.477 112.656C664.659 111.198 664.477 109.922 663.93 108.828C663.383 107.734 663.018 106.458 662.836 105C662.289 103.724 661.378 102.812 660.102 102.266C659.008 101.719 657.914 101.081 656.82 100.352C655.362 95.0651 653.357 89.0495 650.805 82.3047C648.253 75.3776 646.247 69.1797 644.789 63.7109C644.789 63.3464 644.607 63.8932 644.242 65.3516C644.06 66.6276 643.695 68.2682 643.148 70.2734C642.784 72.2786 642.237 74.375 641.508 76.5625C640.779 78.75 639.867 80.4818 638.773 81.7578C640.232 84.3099 640.323 87.4089 639.047 91.0547C637.771 94.7005 636.677 98.3464 635.766 101.992C634.49 107.279 633.305 112.656 632.211 118.125C631.117 123.411 629.659 128.698 627.836 133.984C627.471 135.26 627.016 136.354 626.469 137.266C625.922 138.177 625.466 139.18 625.102 140.273C624.555 142.096 624.281 144.01 624.281 146.016C624.281 148.021 624.099 150.026 623.734 152.031C623.37 154.036 623.005 155.951 622.641 157.773C622.458 159.596 622.185 161.419 621.82 163.242C621.273 166.523 620.635 170.169 619.906 174.18C619.359 178.19 618.539 182.109 617.445 185.938C616.534 189.583 615.258 192.956 613.617 196.055C611.977 198.971 609.88 201.068 607.328 202.344C605.323 203.62 603.5 204.076 601.859 203.711C600.401 203.346 598.852 202.617 597.211 201.523C596.299 201.706 595.753 202.344 595.57 203.438C595.388 204.349 594.932 204.987 594.203 205.352C591.651 205.169 589.555 205.625 587.914 206.719C586.273 207.63 584.451 208.359 582.445 208.906C581.898 209.089 581.26 209.18 580.531 209.18C579.984 208.997 579.438 209.089 578.891 209.453C577.25 210 575.792 210.729 574.516 211.641C573.24 212.552 571.964 213.372 570.688 214.102C569.594 215.013 568.409 215.742 567.133 216.289C565.857 216.836 564.49 216.927 563.031 216.562C560.844 216.016 559.294 214.831 558.383 213.008C557.289 211.185 556.013 209.544 554.555 208.086C554.919 205.534 555.557 202.708 556.469 199.609C557.198 196.51 558.109 193.411 559.203 190.312C560.115 187.031 561.117 183.932 562.211 181.016C563.305 177.917 564.307 175.182 565.219 172.812C565.766 170.807 566.404 168.893 567.133 167.07C567.68 165.247 568.227 163.333 568.773 161.328C569.32 159.505 570.049 157.773 570.961 156.133C571.872 154.31 572.51 152.487 572.875 150.664C573.24 148.659 573.331 146.745 573.148 144.922C572.966 142.917 572.966 140.911 573.148 138.906C573.513 137.083 574.151 135.078 575.062 132.891C575.974 130.703 576.703 128.607 577.25 126.602C579.073 120.404 580.987 114.479 582.992 108.828C584.997 102.995 587.823 97.8906 591.469 93.5156C591.469 90.9635 591.833 88.5938 592.562 86.4062C593.292 84.2188 594.021 82.1224 594.75 80.1172C595.479 78.112 595.935 76.1979 596.117 74.375C596.299 72.3698 595.844 70.2734 594.75 68.0859C595.479 64.8047 596.391 61.7057 597.484 58.7891C598.76 55.6901 599.763 52.4089 600.492 48.9453C600.674 48.0339 600.674 47.0312 600.492 45.9375C600.492 44.8438 600.674 43.8411 601.039 42.9297C601.404 41.2891 602.042 39.5573 602.953 37.7344C604.047 35.7292 605.141 33.8151 606.234 31.9922C607.51 29.987 608.604 28.0729 609.516 26.25C610.609 24.4271 611.339 22.7865 611.703 21.3281C613.708 20.9635 615.622 20.599 617.445 20.2344C619.268 19.6875 621.456 19.4141 624.008 19.4141C625.102 19.4141 626.195 19.5964 627.289 19.9609C628.383 20.1432 629.477 20.1432 630.57 19.9609C632.576 19.5964 634.034 18.6849 634.945 17.2266C636.039 15.7682 637.315 14.6745 638.773 13.9453C641.326 13.5807 643.786 13.3984 646.156 13.3984C648.708 13.2161 651.169 12.7604 653.539 12.0312C654.633 11.6667 656 11.2109 657.641 10.6641C659.464 10.1172 660.922 9.84375 662.016 9.84375C664.203 9.84375 665.935 10.6641 667.211 12.3047C668.669 13.9453 669.854 15.9505 670.766 18.3203C671.677 20.5078 672.497 22.7865 673.227 25.1562C673.956 27.3438 674.958 29.0755 676.234 30.3516C676.234 35.8203 676.508 40.8333 677.055 45.3906C677.602 49.7656 678.057 54.8698 678.422 60.7031C679.151 66.901 680.154 72.6432 681.43 77.9297C682.706 83.0339 684.073 88.3203 685.531 93.7891C686.078 96.1589 686.443 98.5286 686.625 100.898C686.99 103.268 687.628 105.456 688.539 107.461C689.997 111.107 691.456 114.479 692.914 117.578C694.555 120.677 695.557 124.049 695.922 127.695C696.469 131.888 696.651 135.898 696.469 139.727C696.286 143.372 696.651 147.018 697.562 150.664C698.474 153.581 699.477 155.951 700.57 157.773C701.664 159.596 703.214 161.693 705.219 164.062C707.224 161.51 708.409 158.776 708.773 155.859C709.138 152.943 709.503 150.026 709.867 147.109C710.414 144.01 711.143 141.094 712.055 138.359C712.966 135.443 713.878 132.435 714.789 129.336C715.701 124.961 716.885 120.404 718.344 115.664C719.984 110.924 721.625 106.641 723.266 102.812C723.63 101.719 724.268 100.534 725.18 99.2578C726.091 97.9818 726.911 96.7057 727.641 95.4297C728.734 93.4245 728.917 91.1458 728.188 88.5938C727.641 85.8594 727.549 83.2161 727.914 80.6641C728.279 78.8411 728.734 76.9271 729.281 74.9219C730.01 72.7344 730.648 70.5469 731.195 68.3594C732.471 63.0729 733.201 57.4219 733.383 51.4062C733.747 45.3906 734.568 40.1953 735.844 35.8203C736.391 34.362 737.12 32.3568 738.031 29.8047C738.943 27.2526 739.307 25.0651 739.125 23.2422C739.125 21.7839 738.578 20.6901 737.484 19.9609C736.573 19.2318 736.117 18.138 736.117 16.6797C736.117 15.2214 736.755 13.9453 738.031 12.8516C739.49 11.7578 741.13 10.8464 742.953 10.1172C744.958 9.38802 746.964 8.84115 748.969 8.47656C751.156 8.11198 752.979 7.92969 754.438 7.92969C756.078 7.92969 757.536 8.11198 758.812 8.47656C760.271 8.84115 761.638 9.20573 762.914 9.57031C764.19 9.9349 765.557 10.2995 767.016 10.6641C768.656 10.8464 770.479 10.8464 772.484 10.6641C775.583 10.2995 779.047 9.9349 782.875 9.57031C786.703 9.02344 790.44 8.65885 794.086 8.47656C795.909 8.29427 797.641 8.20312 799.281 8.20312C801.104 8.02083 802.654 7.7474 803.93 7.38281C805.753 6.83594 807.576 6.28906 809.398 5.74219C811.221 5.01302 813.409 4.46615 815.961 4.10156C818.148 3.73698 820.245 3.28125 822.25 2.73438C824.438 2.00521 826.26 1.36719 827.719 0.820312C828.266 0.455729 828.812 0.273438 829.359 0.273438C830.089 0.0911458 830.909 0.455729 831.82 1.36719ZM942.289 90.7812C944.112 94.4271 945.479 97.7995 946.391 100.898C947.302 103.997 948.031 108.19 948.578 113.477C948.943 117.122 949.307 120.404 949.672 123.32C950.219 126.055 950.31 129.518 949.945 133.711C949.763 136.628 949.307 139.727 948.578 143.008C947.849 146.107 946.938 149.023 945.844 151.758C944.203 156.68 942.654 160.964 941.195 164.609C939.737 168.255 938.005 172.174 936 176.367C934.724 178.737 933.448 180.651 932.172 182.109C930.896 183.568 929.529 185.117 928.07 186.758C927.706 187.305 927.341 187.943 926.977 188.672C926.794 189.401 926.43 190.039 925.883 190.586C923.513 193.32 920.232 196.146 916.039 199.062C912.029 201.979 908.292 204.076 904.828 205.352C903.552 205.716 902.185 205.99 900.727 206.172C899.451 206.172 898.083 206.354 896.625 206.719C894.802 207.448 893.253 208.542 891.977 210C890.701 211.276 889.06 212.188 887.055 212.734C885.961 213.099 884.594 213.372 882.953 213.555C881.495 213.919 880.036 214.284 878.578 214.648C874.932 215.56 870.375 216.471 864.906 217.383C859.62 218.294 854.698 218.203 850.141 217.109C849.411 216.927 848.682 216.562 847.953 216.016C847.224 215.469 846.404 215.013 845.492 214.648C844.581 214.284 843.669 214.01 842.758 213.828C841.846 213.646 841.026 213.372 840.297 213.008C837.927 212.096 835.648 210.82 833.461 209.18C831.273 207.539 828.995 206.263 826.625 205.352C824.073 203.893 821.521 202.617 818.969 201.523C816.417 200.247 814.685 198.06 813.773 194.961C810.674 194.049 808.487 191.953 807.211 188.672C805.935 185.391 804.385 182.474 802.562 179.922C802.016 179.01 801.195 178.281 800.102 177.734C799.19 177.005 798.552 176.185 798.188 175.273C796.911 173.268 795.909 170.078 795.18 165.703C794.451 161.146 793.995 157.318 793.812 154.219C793.63 150.938 793.812 147.839 794.359 144.922C795.089 141.823 795.818 138.815 796.547 135.898C797.458 132.982 798.37 130.156 799.281 127.422C800.375 124.688 801.286 122.044 802.016 119.492C802.745 116.393 804.112 113.932 806.117 112.109C808.122 110.286 810.036 108.281 811.859 106.094C812.589 105.365 813.135 104.544 813.5 103.633C813.865 102.721 814.411 101.81 815.141 100.898C816.599 99.0755 818.24 97.526 820.062 96.25C821.885 94.7917 823.617 93.3333 825.258 91.875C827.081 90.4167 828.995 89.0495 831 87.7734C833.005 86.3151 834.646 84.8568 835.922 83.3984C837.38 81.3932 838.474 79.388 839.203 77.3828C840.115 75.3776 841.482 73.6458 843.305 72.1875C845.31 70.5469 847.497 69.362 849.867 68.6328C852.419 67.9036 855.336 67.0833 858.617 66.1719C861.716 65.4427 864.724 64.4401 867.641 63.1641C870.74 61.7057 874.021 60.7943 877.484 60.4297C880.766 60.0651 884.32 59.8828 888.148 59.8828C891.977 59.7005 895.714 59.7917 899.359 60.1562C903.188 60.5208 906.742 61.1589 910.023 62.0703C913.487 62.9818 916.495 64.2578 919.047 65.8984C920.323 66.6276 921.599 67.7214 922.875 69.1797C924.333 70.638 925.701 72.0052 926.977 73.2812C929.893 76.1979 932.354 79.2057 934.359 82.3047C936.547 85.2214 939.19 88.0469 942.289 90.7812ZM882.68 78.4766C881.951 78.4766 880.857 78.75 879.398 79.2969C878.122 79.8438 876.755 80.4818 875.297 81.2109C874.021 81.7578 872.836 82.3958 871.742 83.125C870.648 83.8542 869.828 84.401 869.281 84.7656C867.094 86.7708 865.089 89.3229 863.266 92.4219C861.625 95.3385 859.711 97.9818 857.523 100.352C856.612 101.263 855.609 101.992 854.516 102.539C853.604 102.904 852.875 103.451 852.328 104.18C849.229 107.643 846.951 111.654 845.492 116.211C844.216 120.768 842.849 125.143 841.391 129.336C839.75 133.711 838.201 138.633 836.742 144.102C835.284 149.57 834.828 154.766 835.375 159.688C835.557 160.781 835.922 162.24 836.469 164.062C837.198 165.703 837.836 167.253 838.383 168.711C839.112 170.352 839.75 171.992 840.297 173.633C841.026 175.091 841.755 176.458 842.484 177.734C843.578 179.922 844.945 182.292 846.586 184.844C848.409 187.214 850.414 189.31 852.602 191.133C854.971 192.773 857.523 194.049 860.258 194.961C863.174 195.69 866.273 195.599 869.555 194.688C871.56 193.958 874.021 192.865 876.938 191.406C879.854 189.766 882.497 188.216 884.867 186.758C888.331 184.57 890.792 182.383 892.25 180.195C893.708 177.826 895.167 174.818 896.625 171.172C896.99 170.26 897.445 169.44 897.992 168.711C898.721 167.799 899.359 166.888 899.906 165.977C901 163.971 901.911 161.784 902.641 159.414C903.37 157.044 904.281 154.766 905.375 152.578C907.562 147.656 908.93 142.917 909.477 138.359C910.023 133.802 910.479 128.333 910.844 121.953C911.026 118.49 910.753 115.938 910.023 114.297C909.477 112.656 909.021 110.378 908.656 107.461C908.474 105.456 908.383 103.633 908.383 101.992C908.383 100.169 908.018 98.6198 907.289 97.3438C906.378 95.7031 904.646 94.6094 902.094 94.0625C899.724 93.5156 897.81 92.513 896.352 91.0547C894.893 88.6849 893.344 86.4062 891.703 84.2188C890.062 82.0312 888.057 80.2083 885.688 78.75C884.776 78.9323 884.138 78.9323 883.773 78.75C883.409 78.5677 883.044 78.4766 882.68 78.4766ZM1111 217.656C1106.81 217.292 1102.8 217.201 1098.97 217.383C1095.32 217.747 1092.13 217.018 1089.4 215.195C1089.03 214.831 1088.67 214.284 1088.3 213.555C1088.12 213.008 1087.76 212.279 1087.21 211.367C1085.75 209.544 1084.66 207.904 1083.93 206.445C1083.2 204.805 1082.56 202.617 1082.02 199.883C1081.65 199.154 1081.29 198.516 1080.92 197.969C1080.56 197.24 1080.28 196.51 1080.1 195.781C1079.74 194.688 1079.65 193.32 1079.83 191.68C1080.01 190.039 1079.92 188.49 1079.55 187.031C1079.01 184.661 1078.19 182.565 1077.09 180.742C1076.18 178.919 1076.27 176.732 1077.37 174.18C1075.91 171.992 1074.54 168.984 1073.27 165.156C1072.17 161.146 1071.44 157.044 1071.08 152.852C1070.9 149.753 1070.9 145.833 1071.08 141.094C1071.26 136.172 1070.99 132.253 1070.26 129.336C1068.43 130.065 1066.79 131.341 1065.34 133.164C1064.06 134.987 1062.78 136.901 1061.51 138.906C1060.41 140.911 1059.23 142.917 1057.95 144.922C1056.68 146.745 1055.22 148.112 1053.58 149.023C1052.12 151.029 1050.75 153.945 1049.48 157.773C1048.38 161.602 1047.38 164.609 1046.47 166.797C1044.65 170.99 1041.91 174.362 1038.27 176.914C1034.8 179.284 1031.52 181.927 1028.42 184.844C1026.78 186.484 1025.32 188.398 1024.05 190.586C1022.77 192.773 1021.49 195.052 1020.22 197.422C1019.12 199.792 1017.94 202.07 1016.66 204.258C1015.39 206.445 1013.84 208.359 1012.02 210C1010.92 210.911 1009.83 211.549 1008.73 211.914C1007.64 212.279 1006.64 213.099 1005.73 214.375C1001.9 215.651 998.435 216.289 995.336 216.289C992.237 216.471 989.411 215.56 986.859 213.555C985.766 212.826 984.672 211.458 983.578 209.453C982.667 207.448 981.846 205.26 981.117 202.891C980.57 200.339 980.115 197.695 979.75 194.961C979.568 192.227 979.477 189.857 979.477 187.852C979.659 186.393 980.023 185.026 980.57 183.75C981.299 182.474 981.664 181.107 981.664 179.648C981.664 178.555 981.299 177.552 980.57 176.641C980.023 175.547 979.659 174.453 979.477 173.359C979.477 171.901 979.841 170.716 980.57 169.805C981.299 168.711 981.664 167.708 981.664 166.797C981.664 165.521 981.117 164.336 980.023 163.242C979.112 162.148 978.565 160.872 978.383 159.414C978.383 157.227 978.109 154.674 977.562 151.758C977.198 148.841 976.833 145.924 976.469 143.008C976.104 139.909 975.74 136.901 975.375 133.984C975.193 131.068 975.284 128.607 975.648 126.602C976.013 125.326 976.469 124.141 977.016 123.047C977.562 121.953 977.836 120.859 977.836 119.766C978.018 117.214 977.38 114.661 975.922 112.109C974.646 109.375 974.008 106.549 974.008 103.633C974.008 100.534 974.372 97.3438 975.102 94.0625C975.831 90.599 976.286 87.3177 976.469 84.2188C976.651 81.4844 976.651 78.8411 976.469 76.2891C976.286 73.5547 976.924 70.9115 978.383 68.3594C979.659 66.3542 981.299 64.8958 983.305 63.9844C985.492 62.8906 987.771 62.0703 990.141 61.5234C992.146 62.6172 993.969 63.4375 995.609 63.9844C997.25 64.5312 998.799 65.625 1000.26 67.2656C1001.53 68.724 1002.63 70.4557 1003.54 72.4609C1004.63 74.2839 1005.82 75.651 1007.09 76.5625C1008.92 77.6562 1010.38 78.2031 1011.47 78.2031C1012.56 78.0208 1013.75 78.8411 1015.02 80.6641C1016.3 82.487 1017.12 84.6745 1017.48 87.2266C1017.85 89.7786 1017.94 92.513 1017.76 95.4297C1017.76 98.1641 1017.58 100.99 1017.21 103.906C1017.03 106.641 1017.03 109.284 1017.21 111.836C1017.39 113.294 1017.48 114.661 1017.48 115.938C1017.48 117.031 1017.39 118.763 1017.21 121.133C1017.03 123.138 1017.39 125.234 1018.3 127.422C1019.22 129.609 1019.49 131.432 1019.12 132.891C1018.94 133.984 1018.4 134.896 1017.48 135.625C1016.57 136.172 1016.03 137.174 1015.84 138.633C1015.66 140.091 1016.03 141.458 1016.94 142.734C1018.03 143.828 1018.67 145.104 1018.85 146.562C1019.58 149.661 1019.67 152.487 1019.12 155.039C1018.58 157.409 1018.58 159.87 1019.12 162.422C1021.68 160.964 1023.68 159.049 1025.14 156.68C1026.78 154.31 1028.33 152.122 1029.79 150.117C1031.61 148.112 1032.61 146.107 1032.8 144.102C1032.98 141.914 1033.8 139.818 1035.26 137.812C1036.53 136.172 1038.17 133.893 1040.18 130.977C1042.37 128.06 1044.19 125.872 1045.65 124.414C1046.38 123.503 1047.11 121.771 1047.84 119.219C1048.75 116.667 1049.57 114.935 1050.3 114.023C1051.94 111.654 1053.76 109.375 1055.77 107.188C1057.77 104.818 1059.78 102.63 1061.78 100.625C1064.33 102.083 1066.52 102.174 1068.34 100.898C1070.35 99.6224 1070.71 97.7995 1069.44 95.4297C1070.35 93.9714 1071.53 92.2396 1072.99 90.2344C1074.45 88.2292 1076.09 86.4974 1077.91 85.0391C1080.65 83.2161 1083.57 82.487 1086.66 82.8516C1089.95 83.2161 1093.04 84.401 1095.96 86.4062C1097.42 88.9583 1098.06 91.6016 1097.88 94.3359C1097.88 96.888 1097.97 99.5312 1098.15 102.266C1098.15 103.906 1098.42 105.547 1098.97 107.188C1099.52 108.828 1099.79 110.651 1099.79 112.656C1099.79 114.479 1099.7 116.576 1099.52 118.945C1099.52 121.315 1099.42 123.776 1099.24 126.328C1099.24 128.698 1099.15 131.159 1098.97 133.711C1098.97 136.081 1099.15 138.268 1099.52 140.273C1100.61 141.914 1101.34 143.919 1101.7 146.289C1102.25 148.659 1102.61 151.12 1102.8 153.672C1102.98 156.224 1103.16 158.776 1103.34 161.328C1103.71 163.698 1104.35 165.794 1105.26 167.617C1107.45 167.617 1108.63 167.161 1108.81 166.25C1109.18 165.339 1109.82 164.062 1110.73 162.422C1111.64 160.417 1112.28 158.958 1112.64 158.047C1113.19 157.135 1113.55 156.315 1113.73 155.586C1114.1 154.857 1114.46 154.036 1114.83 153.125C1115.19 152.214 1115.83 150.755 1116.74 148.75C1117.65 146.745 1118.57 144.831 1119.48 143.008C1120.57 141.003 1121.48 138.997 1122.21 136.992C1122.94 134.987 1123.3 133.438 1123.3 132.344C1123.49 131.25 1124.49 129.974 1126.31 128.516C1127.41 127.604 1128.59 126.784 1129.87 126.055C1131.14 125.326 1132.05 124.232 1132.6 122.773C1132.97 121.862 1133.06 121.042 1132.88 120.312C1132.88 119.583 1133.06 118.854 1133.42 118.125C1134.15 115.026 1135.15 111.927 1136.43 108.828C1137.71 105.729 1138.71 102.812 1139.44 100.078C1139.98 97.3438 1140.44 94.7005 1140.8 92.1484C1141.35 89.5964 1142.72 87.3177 1144.91 85.3125C1146 81.849 1147 79.2057 1147.91 77.3828C1148.83 75.5599 1149.83 73.9193 1150.92 72.4609C1152.02 71.0026 1153.11 69.4531 1154.2 67.8125C1155.3 65.9896 1156.48 63.5286 1157.76 60.4297C1161.4 61.1589 1164.5 62.526 1167.05 64.5312C1169.79 66.3542 1171.89 69.2708 1173.34 73.2812C1173.89 75.2865 1174.53 77.1094 1175.26 78.75C1175.99 80.3906 1175.9 82.3958 1174.98 84.7656C1174.44 86.224 1173.89 87.2266 1173.34 87.7734C1172.8 88.3203 1172.16 88.776 1171.43 89.1406C1170.88 89.5052 1170.24 90.1432 1169.52 91.0547C1168.97 91.7839 1168.42 93.2422 1167.88 95.4297C1167.69 96.3411 1167.69 97.2526 1167.88 98.1641C1168.06 99.0755 1168.06 100.078 1167.88 101.172C1167.51 103.177 1166.87 105.273 1165.96 107.461C1165.23 109.648 1164.68 111.107 1164.32 111.836C1163.41 113.112 1162.13 114.115 1160.49 114.844C1159.03 115.391 1157.76 116.211 1156.66 117.305C1156.12 118.216 1155.39 119.219 1154.48 120.312C1153.75 121.406 1153.2 122.5 1152.84 123.594C1150.83 127.786 1149.37 132.161 1148.46 136.719C1147.55 141.094 1146.18 145.651 1144.36 150.391C1143.27 153.125 1142.08 155.039 1140.8 156.133C1139.53 157.227 1138.34 158.229 1137.25 159.141C1136.16 160.052 1135.24 161.328 1134.52 162.969C1133.79 164.427 1133.42 167.07 1133.42 170.898C1131.6 174.909 1130.05 179.102 1128.77 183.477C1127.5 187.669 1125.95 191.953 1124.12 196.328C1122.3 200.521 1120.39 204.349 1118.38 207.812C1116.56 211.094 1114.1 214.375 1111 217.656Z" fill="#fff"/>
</svg>
